<svg xmlns="http://www.w3.org/2000/svg" xmlns:xlink="http://www.w3.org/1999/xlink" width="97" zoomAndPan="magnify" viewBox="0 0 72.75 44.999999" height="60" preserveAspectRatio="xMidYMid meet" version="1.0"><defs><g/><clipPath id="3c3e94707b"><path d="M 0.402344 35.761719 L 25.269531 35.761719 L 25.269531 38.757812 L 0.402344 38.757812 Z M 0.402344 35.761719 " clip-rule="nonzero"/></clipPath><clipPath id="f27c1dc466"><path d="M 1.894531 35.761719 L 23.773438 35.761719 C 24.597656 35.761719 25.269531 36.433594 25.269531 37.257812 L 25.269531 37.261719 C 25.269531 38.089844 24.597656 38.757812 23.773438 38.757812 L 1.894531 38.757812 C 1.070312 38.757812 0.402344 38.089844 0.402344 37.261719 L 0.402344 37.257812 C 0.402344 36.433594 1.070312 35.761719 1.894531 35.761719 Z M 1.894531 35.761719 " clip-rule="nonzero"/></clipPath><clipPath id="3b38ec73c6"><path d="M 49.0625 4 L 66.300781 4 L 66.300781 21.996094 L 49.0625 21.996094 Z M 49.0625 4 " clip-rule="nonzero"/></clipPath></defs><g fill="#ffffff" fill-opacity="1"><g transform="translate(0, 21.016773)"><g><path d="M 7.101562 -0.613281 C 7.101562 -0.613281 7.089844 -9.570312 7.089844 -9.957031 C 7.101562 -10.25 6.914062 -10.410156 6.648438 -10.425781 C 6.449219 -10.425781 6.207031 -10.425781 5.941406 -10.425781 C 5.285156 -10.425781 4.203125 -10.410156 4.203125 -10.410156 L 4.203125 -10.226562 L 4.820312 -9.8125 L 4.820312 -7.140625 C 4.683594 -7.234375 4.539062 -7.316406 4.378906 -7.367188 C 2.496094 -8.023438 0.199219 -7.007812 0.199219 -3.710938 C 0.199219 0.46875 3.84375 0.90625 4.820312 -0.894531 L 4.820312 0 L 7.730469 0 L 7.730469 -0.1875 Z M 3.777344 -0.414062 C 3.042969 -0.480469 2.816406 -2.242188 2.816406 -3.671875 C 2.816406 -4.871094 2.976562 -7.113281 4.179688 -7.113281 C 4.378906 -7.113281 4.617188 -7.046875 4.820312 -6.929688 L 4.820312 -1.1875 C 4.59375 -0.734375 4.058594 -0.386719 3.777344 -0.414062 Z M 3.777344 -0.414062 "/></g></g></g><g fill="#ffffff" fill-opacity="1"><g transform="translate(7.861744, 21.016773)"><g><path d="M 6.996094 -0.628906 L 6.996094 -1.707031 C 6.980469 -3.589844 6.980469 -7.074219 6.980469 -7.167969 C 6.996094 -7.460938 6.808594 -7.621094 6.539062 -7.621094 C 6.339844 -7.621094 4.097656 -7.609375 4.097656 -7.609375 L 4.097656 -7.421875 L 4.710938 -7.007812 L 4.710938 -1.640625 C 4.457031 -1.148438 3.683594 -0.414062 3.296875 -0.574219 C 3.109375 -0.652344 3.015625 -0.949219 2.976562 -1.480469 C 2.964844 -1.75 2.976562 -7.140625 2.976562 -7.167969 C 2.976562 -7.460938 2.804688 -7.621094 2.523438 -7.621094 C 2.324219 -7.621094 0.0820312 -7.609375 0.0820312 -7.609375 L 0.0820312 -7.421875 L 0.695312 -7.007812 C 0.695312 -2.375 0.332031 -0.0820312 2.417969 0.0117188 C 3.191406 0.0390625 4.019531 -0.320312 4.710938 -1.214844 L 4.710938 -0.0117188 C 4.710938 -0.0117188 5.140625 -0.0117188 5.832031 -0.0117188 C 6.996094 -0.0117188 7.621094 -0.0117188 7.621094 -0.0117188 L 7.621094 -0.199219 Z M 6.996094 -0.628906 "/></g></g></g><g fill="#ffffff" fill-opacity="1"><g transform="translate(15.65675, 21.016773)"><g><path d="M 7.101562 -0.613281 C 7.101562 -0.613281 7.089844 -9.570312 7.089844 -9.957031 C 7.101562 -10.25 6.914062 -10.410156 6.648438 -10.425781 C 6.449219 -10.425781 6.207031 -10.425781 5.941406 -10.425781 C 5.285156 -10.425781 4.203125 -10.410156 4.203125 -10.410156 L 4.203125 -10.226562 L 4.820312 -9.8125 L 4.820312 -7.140625 C 4.683594 -7.234375 4.539062 -7.316406 4.378906 -7.367188 C 2.496094 -8.023438 0.199219 -7.007812 0.199219 -3.710938 C 0.199219 0.46875 3.84375 0.90625 4.820312 -0.894531 L 4.820312 0 L 7.730469 0 L 7.730469 -0.1875 Z M 3.777344 -0.414062 C 3.042969 -0.480469 2.816406 -2.242188 2.816406 -3.671875 C 2.816406 -4.871094 2.976562 -7.113281 4.179688 -7.113281 C 4.378906 -7.113281 4.617188 -7.046875 4.820312 -6.929688 L 4.820312 -1.1875 C 4.59375 -0.734375 4.058594 -0.386719 3.777344 -0.414062 Z M 3.777344 -0.414062 "/></g></g></g><g fill="#ffffff" fill-opacity="1"><g transform="translate(23.518495, 21.016773)"><g><path d="M 6.996094 -0.628906 L 6.996094 -1.707031 C 6.980469 -3.589844 6.980469 -7.074219 6.980469 -7.167969 C 6.996094 -7.460938 6.808594 -7.621094 6.539062 -7.621094 C 6.339844 -7.621094 4.097656 -7.609375 4.097656 -7.609375 L 4.097656 -7.421875 L 4.710938 -7.007812 L 4.710938 -1.640625 C 4.457031 -1.148438 3.683594 -0.414062 3.296875 -0.574219 C 3.109375 -0.652344 3.015625 -0.949219 2.976562 -1.480469 C 2.964844 -1.75 2.976562 -7.140625 2.976562 -7.167969 C 2.976562 -7.460938 2.804688 -7.621094 2.523438 -7.621094 C 2.324219 -7.621094 0.0820312 -7.609375 0.0820312 -7.609375 L 0.0820312 -7.421875 L 0.695312 -7.007812 C 0.695312 -2.375 0.332031 -0.0820312 2.417969 0.0117188 C 3.191406 0.0390625 4.019531 -0.320312 4.710938 -1.214844 L 4.710938 -0.0117188 C 4.710938 -0.0117188 5.140625 -0.0117188 5.832031 -0.0117188 C 6.996094 -0.0117188 7.621094 -0.0117188 7.621094 -0.0117188 L 7.621094 -0.199219 Z M 6.996094 -0.628906 "/></g></g></g><g fill="#ff9100" fill-opacity="1"><g transform="translate(0, 33.036902)"><g><path d="M 8.25 -7.386719 C 8.042969 -9.386719 6.460938 -9.480469 4.457031 -9.519531 C 2.953125 -9.53125 0.40625 -9.519531 0.40625 -9.519531 L 0.40625 -9.324219 L 1.386719 -8.917969 C 1.386719 -8.917969 1.359375 -8.445312 1.359375 -8.121094 L 1.359375 -0.601562 L 0.40625 -0.210938 L 0.40625 0.0117188 C 0.40625 0.0117188 1.320312 0 2.457031 0 C 3.582031 0 4.496094 0.0117188 4.496094 0.0117188 L 4.496094 -0.210938 L 3.597656 -0.601562 L 3.554688 -3.609375 C 4.5625 -5.375 8.433594 -4.96875 8.25 -7.386719 Z M 3.554688 -8.121094 C 3.554688 -8.90625 3.921875 -9.285156 4.378906 -9.308594 C 5.152344 -9.363281 6.183594 -8.445312 6.09375 -7.164062 C 5.960938 -5.296875 4.667969 -5.480469 3.554688 -4.066406 Z M 3.554688 -8.121094 "/></g></g></g><g fill="#ff9100" fill-opacity="1"><g transform="translate(8.406274, 33.036902)"><g><path d="M 4.5625 -0.183594 L 3.648438 -0.601562 L 3.648438 -8.917969 L 4.5625 -9.324219 L 4.5625 -9.503906 C 4.5625 -9.503906 3.648438 -9.519531 2.511719 -9.519531 C 1.371094 -9.519531 0.457031 -9.503906 0.457031 -9.503906 L 0.457031 -9.324219 L 1.414062 -8.917969 L 1.414062 -0.601562 L 0.457031 -0.183594 L 0.457031 0.0117188 C 0.457031 0.0117188 1.371094 0 2.511719 0 C 3.648438 0 4.5625 0.0117188 4.5625 0.0117188 Z M 4.5625 -0.183594 "/></g></g></g><g fill="#ff9100" fill-opacity="1"><g transform="translate(13.151944, 33.036902)"><g><path d="M 7.101562 -9.53125 C 4.863281 -9.519531 2.796875 -9.519531 0.589844 -9.53125 C 0.523438 -9.53125 0.511719 -9.480469 0.535156 -9.425781 C 0.71875 -9.191406 0.992188 -8.667969 1.007812 -8.289062 C 1.019531 -7.363281 1.03125 -6.421875 1.019531 -6.339844 C 1.113281 -6.339844 1.242188 -6.328125 1.332031 -6.339844 C 1.476562 -7.347656 1.960938 -8.890625 2.929688 -9.230469 C 3.296875 -9.363281 3.921875 -9.363281 4.238281 -9.074219 C 4.511719 -8.8125 4.367188 -8.644531 4.25 -8.394531 L 0.589844 -0.261719 L 0.589844 0.0117188 C 1.175781 -0.0117188 6.460938 0 6.957031 0.0117188 C 7.019531 0.0117188 7.019531 -0.0390625 6.996094 -0.0898438 C 6.824219 -0.328125 6.539062 -0.851562 6.539062 -1.230469 C 6.511719 -2.15625 6.511719 -3.097656 6.511719 -3.175781 C 6.421875 -3.191406 6.300781 -3.175781 6.210938 -3.175781 C 6.054688 -2.171875 5.582031 -0.640625 4.617188 -0.289062 C 4.316406 -0.183594 3.871094 -0.15625 3.53125 -0.300781 C 3.046875 -0.511719 3.230469 -0.640625 3.453125 -1.136719 L 7.101562 -9.257812 Z M 7.101562 -9.53125 "/></g></g></g><g fill="#ff9100" fill-opacity="1"><g transform="translate(20.381596, 33.036902)"><g><path d="M 7.101562 -9.53125 C 4.863281 -9.519531 2.796875 -9.519531 0.589844 -9.53125 C 0.523438 -9.53125 0.511719 -9.480469 0.535156 -9.425781 C 0.71875 -9.191406 0.992188 -8.667969 1.007812 -8.289062 C 1.019531 -7.363281 1.03125 -6.421875 1.019531 -6.339844 C 1.113281 -6.339844 1.242188 -6.328125 1.332031 -6.339844 C 1.476562 -7.347656 1.960938 -8.890625 2.929688 -9.230469 C 3.296875 -9.363281 3.921875 -9.363281 4.238281 -9.074219 C 4.511719 -8.8125 4.367188 -8.644531 4.25 -8.394531 L 0.589844 -0.261719 L 0.589844 0.0117188 C 1.175781 -0.0117188 6.460938 0 6.957031 0.0117188 C 7.019531 0.0117188 7.019531 -0.0390625 6.996094 -0.0898438 C 6.824219 -0.328125 6.539062 -0.851562 6.539062 -1.230469 C 6.511719 -2.15625 6.511719 -3.097656 6.511719 -3.175781 C 6.421875 -3.191406 6.300781 -3.175781 6.210938 -3.175781 C 6.054688 -2.171875 5.582031 -0.640625 4.617188 -0.289062 C 4.316406 -0.183594 3.871094 -0.15625 3.53125 -0.300781 C 3.046875 -0.511719 3.230469 -0.640625 3.453125 -1.136719 L 7.101562 -9.257812 Z M 7.101562 -9.53125 "/></g></g></g><g fill="#ff9100" fill-opacity="1"><g transform="translate(27.611248, 33.036902)"><g><path d="M 10.761719 -0.183594 L 9.859375 -0.613281 L 6.550781 -8.90625 L 7.375 -9.324219 L 7.386719 -9.503906 L 4.144531 -9.519531 C 2.117188 -2.261719 1.921875 -0.890625 0.25 -0.195312 C 0.25 -0.105469 0.25 -0.0664062 0.25 -0.0117188 C 0.289062 -0.0117188 4.617188 -0.0117188 4.746094 -0.0117188 C 4.734375 -0.0507812 4.757812 -0.105469 4.746094 -0.195312 C 3.675781 -0.261719 3.253906 -1.542969 3.214844 -3.152344 L 6.289062 -3.152344 C 6.800781 -1.777344 7.21875 -0.640625 7.21875 -0.640625 L 6.578125 -0.183594 L 6.578125 0.0117188 L 10.761719 0 Z M 3.214844 -3.386719 C 3.214844 -4.929688 3.570312 -6.8125 4.039062 -8.511719 C 4.144531 -8.863281 4.183594 -8.90625 4.316406 -8.460938 C 4.339844 -8.382812 5.375 -5.597656 6.199219 -3.386719 Z M 3.214844 -3.386719 "/></g></g></g><g fill="#ff9100" fill-opacity="1"><g transform="translate(38.462283, 33.036902)"><g><path d="M 8.511719 -0.769531 C 8.277344 -0.550781 7.9375 -0.589844 7.792969 -0.8125 C 7.308594 -1.542969 7.21875 -4.929688 3.9375 -4.300781 C 5.414062 -5.296875 8.105469 -5.347656 7.9375 -7.375 C 7.742188 -9.375 6.160156 -9.464844 4.15625 -9.503906 C 2.65625 -9.519531 0.0898438 -9.503906 0.0898438 -9.503906 L 0.0898438 -9.324219 L 1.085938 -8.90625 C 1.085938 -8.90625 1.046875 -8.433594 1.046875 -8.105469 L 1.058594 -0.601562 L 0.105469 -0.210938 L 0.105469 0.0117188 C 0.105469 0.0117188 1.019531 0 2.15625 0 C 3.28125 0 4.195312 0.0117188 4.195312 0.0117188 L 4.195312 -0.210938 L 3.28125 -0.601562 L 3.253906 -3.597656 C 3.597656 -4.210938 4.640625 -4.09375 4.917969 -1.425781 C 5.035156 -0.390625 5.726562 -0.0507812 6.785156 -0.0117188 C 7.519531 0.0273438 8.121094 -0.105469 8.667969 -0.601562 C 8.746094 -0.707031 8.644531 -0.863281 8.511719 -0.769531 Z M 4.078125 -9.296875 C 4.851562 -9.347656 5.882812 -8.433594 5.792969 -7.152344 C 5.660156 -5.375 4.550781 -5.53125 3.253906 -4.09375 L 3.253906 -8.105469 C 3.253906 -8.890625 3.621094 -9.269531 4.078125 -9.296875 Z M 4.078125 -9.296875 "/></g></g></g><g fill="#ff9100" fill-opacity="1"><g transform="translate(47.247694, 33.036902)"><g><path d="M 4.5625 -0.183594 L 3.648438 -0.601562 L 3.648438 -8.917969 L 4.5625 -9.324219 L 4.5625 -9.503906 C 4.5625 -9.503906 3.648438 -9.519531 2.511719 -9.519531 C 1.371094 -9.519531 0.457031 -9.503906 0.457031 -9.503906 L 0.457031 -9.324219 L 1.414062 -8.917969 L 1.414062 -0.601562 L 0.457031 -0.183594 L 0.457031 0.0117188 C 0.457031 0.0117188 1.371094 0 2.511719 0 C 3.648438 0 4.5625 0.0117188 4.5625 0.0117188 Z M 4.5625 -0.183594 "/></g></g></g><g fill="#ff9100" fill-opacity="1"><g transform="translate(51.993362, 33.036902)"><g><path d="M 10.761719 -0.183594 L 9.859375 -0.613281 L 6.550781 -8.90625 L 7.375 -9.324219 L 7.386719 -9.503906 L 4.144531 -9.519531 C 2.117188 -2.261719 1.921875 -0.890625 0.25 -0.195312 C 0.25 -0.105469 0.25 -0.0664062 0.25 -0.0117188 C 0.289062 -0.0117188 4.617188 -0.0117188 4.746094 -0.0117188 C 4.734375 -0.0507812 4.757812 -0.105469 4.746094 -0.195312 C 3.675781 -0.261719 3.253906 -1.542969 3.214844 -3.152344 L 6.289062 -3.152344 C 6.800781 -1.777344 7.21875 -0.640625 7.21875 -0.640625 L 6.578125 -0.183594 L 6.578125 0.0117188 L 10.761719 0 Z M 3.214844 -3.386719 C 3.214844 -4.929688 3.570312 -6.8125 4.039062 -8.511719 C 4.144531 -8.863281 4.183594 -8.90625 4.316406 -8.460938 C 4.339844 -8.382812 5.375 -5.597656 6.199219 -3.386719 Z M 3.214844 -3.386719 "/></g></g></g><g clip-path="url(#3c3e94707b)"><g clip-path="url(#f27c1dc466)"><path fill="#ffffff" d="M 0.402344 35.761719 L 25.269531 35.761719 L 25.269531 38.757812 L 0.402344 38.757812 Z M 0.402344 35.761719 " fill-opacity="1" fill-rule="nonzero"/></g></g><g clip-path="url(#3b38ec73c6)"><path fill="#ff9100" d="M 57.097656 4.039062 C 54.546875 4.082031 51.996094 4.902344 49.84375 6.523438 C 49.402344 6.851562 49.132812 7.351562 49.105469 7.90625 C 49.0625 8.460938 49.261719 9.003906 49.660156 9.386719 C 50.316406 10.042969 51.425781 10.113281 52.140625 9.574219 C 52.625 9.203125 53.164062 8.875 53.707031 8.605469 C 53.863281 8.519531 54.050781 8.632812 54.09375 8.804688 C 54.09375 8.816406 54.105469 8.847656 54.105469 8.859375 C 54.191406 9.074219 54.449219 9.175781 54.660156 9.089844 C 55.84375 8.589844 57.128906 8.332031 58.382812 8.332031 C 59.964844 8.332031 61.402344 8.746094 62.554688 9.515625 C 62.628906 9.558594 62.714844 9.585938 62.796875 9.585938 C 62.941406 9.585938 63.070312 9.515625 63.15625 9.402344 C 63.242188 9.261719 63.453125 9.289062 63.511719 9.445312 C 63.609375 9.773438 63.582031 10.144531 63.410156 10.441406 L 57.3125 20.71875 L 52.238281 12.152344 C 52.109375 11.9375 51.839844 11.882812 51.640625 12.011719 C 51.441406 12.136719 51.398438 12.410156 51.527344 12.609375 L 56.957031 21.773438 C 57.027344 21.898438 57.167969 21.984375 57.328125 21.984375 C 57.484375 21.984375 57.613281 21.898438 57.695312 21.773438 L 64.167969 10.871094 C 64.722656 9.929688 64.4375 8.675781 63.539062 8.089844 C 60.148438 5.898438 55.144531 6.226562 51.625 8.890625 C 51.242188 9.175781 50.613281 9.132812 50.257812 8.777344 C 50.042969 8.5625 49.929688 8.261719 49.945312 7.949219 C 49.960938 7.648438 50.117188 7.378906 50.359375 7.195312 C 54.933594 3.757812 61.445312 4.214844 65.507812 8.261719 C 65.648438 8.40625 65.875 8.449219 66.046875 8.320312 C 66.277344 8.164062 66.304688 7.847656 66.117188 7.664062 C 63.667969 5.210938 60.378906 3.984375 57.097656 4.039062 Z M 59.636719 9.585938 C 59.390625 9.585938 59.152344 9.632812 58.925781 9.730469 C 58.699219 9.824219 58.5 9.957031 58.324219 10.128906 C 58.152344 10.304688 58.019531 10.503906 57.921875 10.730469 C 57.828125 10.957031 57.78125 11.195312 57.78125 11.441406 C 57.78125 11.6875 57.828125 11.921875 57.921875 12.148438 C 58.019531 12.375 58.152344 12.578125 58.324219 12.75 C 58.5 12.925781 58.699219 13.058594 58.925781 13.152344 C 59.152344 13.246094 59.390625 13.292969 59.636719 13.292969 C 59.882812 13.292969 60.117188 13.246094 60.34375 13.152344 C 60.570312 13.058594 60.773438 12.925781 60.945312 12.75 C 61.117188 12.578125 61.253906 12.375 61.347656 12.148438 C 61.441406 11.921875 61.488281 11.6875 61.488281 11.441406 C 61.488281 11.195312 61.441406 10.957031 61.347656 10.730469 C 61.253906 10.503906 61.117188 10.304688 60.945312 10.128906 C 60.773438 9.957031 60.570312 9.824219 60.34375 9.730469 C 60.117188 9.632812 59.882812 9.585938 59.636719 9.585938 Z M 57.15625 14.804688 C 57.003906 14.804688 56.859375 14.832031 56.71875 14.890625 C 56.578125 14.949219 56.457031 15.03125 56.351562 15.136719 C 56.242188 15.242188 56.160156 15.367188 56.101562 15.507812 C 56.042969 15.648438 56.015625 15.792969 56.015625 15.941406 C 56.015625 16.09375 56.042969 16.238281 56.101562 16.378906 C 56.160156 16.519531 56.242188 16.640625 56.351562 16.75 C 56.457031 16.855469 56.578125 16.9375 56.71875 16.996094 C 56.859375 17.054688 57.003906 17.082031 57.15625 17.082031 C 57.308594 17.082031 57.453125 17.054688 57.59375 16.996094 C 57.730469 16.9375 57.855469 16.855469 57.960938 16.75 C 58.070312 16.640625 58.152344 16.519531 58.207031 16.378906 C 58.265625 16.238281 58.296875 16.09375 58.296875 15.941406 C 58.296875 15.792969 58.265625 15.648438 58.207031 15.507812 C 58.152344 15.367188 58.070312 15.242188 57.960938 15.136719 C 57.855469 15.03125 57.730469 14.949219 57.59375 14.890625 C 57.453125 14.832031 57.308594 14.804688 57.15625 14.804688 Z M 57.15625 14.804688 " fill-opacity="1" fill-rule="nonzero"/></g><g fill="#ff9100" fill-opacity="1"><g transform="translate(26.551532, 38.569577)"><g><path d="M 0.320312 -0.125 L 0.195312 0 L 0.992188 0 L 0.902344 -0.121094 L 0.972656 -0.378906 L 1.664062 -0.378906 L 1.734375 -0.121094 L 1.644531 0 L 2.445312 0 L 2.320312 -0.125 L 1.640625 -2.625 L 1.695312 -2.726562 L 0.941406 -2.726562 L 0.996094 -2.621094 Z M 1.101562 -0.847656 L 1.320312 -1.652344 L 1.539062 -0.847656 Z M 1.101562 -0.847656 "/></g></g></g><g fill="#ff9100" fill-opacity="1"><g transform="translate(29.13059, 38.569577)"><g/></g></g><g fill="#ff9100" fill-opacity="1"><g transform="translate(30.388936, 38.569577)"><g><path d="M 1.230469 -0.660156 L 1.605469 -0.660156 L 1.984375 -1.316406 L 1.984375 -0.140625 L 1.886719 0 L 2.640625 0 L 2.546875 -0.140625 L 2.546875 -2.589844 L 2.640625 -2.726562 L 1.984375 -2.726562 L 1.417969 -1.410156 L 0.855469 -2.726562 L 0.195312 -2.726562 L 0.289062 -2.589844 L 0.289062 -0.140625 L 0.195312 0 L 0.945312 0 L 0.855469 -0.140625 L 0.855469 -1.316406 Z M 1.230469 -0.660156 "/></g></g></g><g fill="#ff9100" fill-opacity="1"><g transform="translate(33.166686, 38.569577)"><g><path d="M 0.855469 -2.257812 L 1.324219 -2.257812 L 1.324219 -2.070312 L 1.890625 -2.070312 L 1.890625 -2.726562 L 0.195312 -2.726562 L 0.289062 -2.589844 L 0.289062 -0.140625 L 0.195312 0 L 1.890625 0 L 1.890625 -0.660156 L 1.324219 -0.660156 L 1.324219 -0.472656 L 0.855469 -0.472656 L 0.855469 -1.128906 L 1.511719 -1.128906 L 1.417969 -1.597656 L 0.855469 -1.597656 Z M 0.855469 -2.257812 "/></g></g></g><g fill="#ff9100" fill-opacity="1"><g transform="translate(35.18863, 38.569577)"><g><path d="M 1.890625 -0.660156 L 1.324219 -0.660156 L 1.324219 -0.472656 L 0.855469 -0.472656 L 0.855469 -2.589844 L 0.945312 -2.726562 L 0.195312 -2.726562 L 0.289062 -2.589844 L 0.289062 -0.140625 L 0.195312 0 L 1.890625 0 Z M 1.890625 -0.660156 "/></g></g></g><g fill="#ff9100" fill-opacity="1"><g transform="translate(37.210574, 38.569577)"><g><path d="M 0.855469 -2.589844 L 0.945312 -2.726562 L 0.195312 -2.726562 L 0.289062 -2.589844 L 0.289062 -0.140625 L 0.195312 0 L 0.945312 0 L 0.855469 -0.140625 L 0.855469 -1.128906 L 1.464844 -1.128906 L 1.464844 -0.140625 L 1.371094 0 L 2.125 0 L 2.03125 -0.140625 L 2.03125 -2.589844 L 2.125 -2.726562 L 1.371094 -2.726562 L 1.464844 -2.589844 L 1.464844 -1.597656 L 0.855469 -1.597656 Z M 0.855469 -2.589844 "/></g></g></g><g fill="#ff9100" fill-opacity="1"><g transform="translate(39.47017, 38.569577)"><g><path d="M 1.890625 -0.332031 L 1.890625 -2.402344 C 1.890625 -2.445312 1.878906 -2.488281 1.863281 -2.527344 C 1.847656 -2.566406 1.824219 -2.601562 1.792969 -2.632812 C 1.761719 -2.660156 1.726562 -2.683594 1.6875 -2.699219 C 1.648438 -2.714844 1.605469 -2.726562 1.558594 -2.726562 L 0.527344 -2.726562 C 0.480469 -2.726562 0.433594 -2.714844 0.394531 -2.699219 C 0.355469 -2.683594 0.320312 -2.660156 0.289062 -2.632812 C 0.257812 -2.601562 0.234375 -2.566406 0.21875 -2.527344 C 0.203125 -2.488281 0.195312 -2.445312 0.195312 -2.402344 L 0.195312 -0.332031 C 0.195312 -0.238281 0.226562 -0.160156 0.292969 -0.0976562 C 0.355469 -0.03125 0.433594 0 0.527344 0 L 1.558594 0 C 1.648438 0 1.726562 -0.03125 1.792969 -0.0976562 C 1.855469 -0.160156 1.890625 -0.238281 1.890625 -0.332031 Z M 1.324219 -2.257812 L 1.324219 -0.472656 L 0.761719 -0.472656 L 0.761719 -2.257812 Z M 1.324219 -2.257812 "/></g></g></g><g fill="#ff9100" fill-opacity="1"><g transform="translate(41.492114, 38.569577)"><g><path d="M 0.855469 -0.140625 L 0.855469 -0.890625 L 1.183594 -0.890625 L 1.5 0 L 2.101562 0 L 1.777344 -0.917969 C 1.835938 -0.941406 1.886719 -0.980469 1.925781 -1.035156 C 1.964844 -1.089844 1.984375 -1.152344 1.984375 -1.222656 L 1.984375 -2.402344 C 1.984375 -2.445312 1.972656 -2.488281 1.957031 -2.527344 C 1.941406 -2.566406 1.917969 -2.601562 1.886719 -2.632812 C 1.855469 -2.660156 1.820312 -2.683594 1.78125 -2.699219 C 1.742188 -2.714844 1.699219 -2.726562 1.652344 -2.726562 L 0.195312 -2.726562 L 0.289062 -2.589844 L 0.289062 -0.140625 L 0.195312 0 L 0.945312 0 Z M 0.855469 -2.257812 L 1.417969 -2.257812 L 1.417969 -1.363281 L 0.855469 -1.363281 Z M 0.855469 -2.257812 "/></g></g></g><g fill="#ff9100" fill-opacity="1"><g transform="translate(43.728332, 38.569577)"><g/></g></g><g fill="#ff9100" fill-opacity="1"><g transform="translate(44.986679, 38.569577)"><g><path d="M 1.984375 -0.332031 L 1.984375 -2.402344 C 1.984375 -2.445312 1.972656 -2.488281 1.957031 -2.527344 C 1.941406 -2.566406 1.917969 -2.601562 1.886719 -2.632812 C 1.855469 -2.660156 1.820312 -2.683594 1.78125 -2.699219 C 1.742188 -2.714844 1.699219 -2.726562 1.652344 -2.726562 L 0.195312 -2.726562 L 0.289062 -2.589844 L 0.289062 -0.140625 L 0.195312 0 L 1.652344 0 C 1.742188 0 1.820312 -0.03125 1.886719 -0.0976562 C 1.949219 -0.160156 1.984375 -0.238281 1.984375 -0.332031 Z M 1.417969 -2.257812 L 1.417969 -0.472656 L 0.855469 -0.472656 L 0.855469 -2.257812 Z M 1.417969 -2.257812 "/></g></g></g><g fill="#ff9100" fill-opacity="1"><g transform="translate(47.10602, 38.569577)"><g><path d="M 0.320312 -0.125 L 0.195312 0 L 0.992188 0 L 0.902344 -0.121094 L 0.972656 -0.378906 L 1.664062 -0.378906 L 1.734375 -0.121094 L 1.644531 0 L 2.445312 0 L 2.320312 -0.125 L 1.640625 -2.625 L 1.695312 -2.726562 L 0.941406 -2.726562 L 0.996094 -2.621094 Z M 1.101562 -0.847656 L 1.320312 -1.652344 L 1.539062 -0.847656 Z M 1.101562 -0.847656 "/></g></g></g><g fill="#ff9100" fill-opacity="1"><g transform="translate(49.685078, 38.569577)"><g/></g></g><g fill="#ff9100" fill-opacity="1"><g transform="translate(50.943424, 38.569577)"><g><path d="M 1.324219 -0.9375 L 1.324219 -0.472656 L 0.761719 -0.472656 L 0.761719 -2.257812 L 1.324219 -2.257812 L 1.324219 -1.695312 L 1.890625 -1.789062 L 1.890625 -2.402344 C 1.890625 -2.445312 1.878906 -2.488281 1.863281 -2.527344 C 1.847656 -2.566406 1.824219 -2.601562 1.792969 -2.632812 C 1.761719 -2.660156 1.726562 -2.683594 1.6875 -2.699219 C 1.648438 -2.714844 1.605469 -2.726562 1.558594 -2.726562 L 0.527344 -2.726562 C 0.480469 -2.726562 0.433594 -2.714844 0.394531 -2.699219 C 0.355469 -2.683594 0.320312 -2.660156 0.289062 -2.632812 C 0.257812 -2.601562 0.234375 -2.566406 0.21875 -2.527344 C 0.203125 -2.488281 0.195312 -2.445312 0.195312 -2.402344 L 0.195312 -0.332031 C 0.195312 -0.238281 0.226562 -0.160156 0.292969 -0.0976562 C 0.355469 -0.03125 0.433594 0 0.527344 0 L 1.558594 0 C 1.648438 0 1.726562 -0.03125 1.792969 -0.0976562 C 1.855469 -0.160156 1.890625 -0.238281 1.890625 -0.332031 L 1.890625 -0.9375 Z M 1.324219 -0.9375 "/></g></g></g><g fill="#ff9100" fill-opacity="1"><g transform="translate(52.965367, 38.569577)"><g><path d="M 0.195312 0 L 0.945312 0 L 0.855469 -0.140625 L 0.855469 -2.589844 L 0.945312 -2.726562 L 0.195312 -2.726562 L 0.289062 -2.589844 L 0.289062 -0.140625 Z M 0.195312 0 "/></g></g></g><g fill="#ff9100" fill-opacity="1"><g transform="translate(54.048394, 38.569577)"><g><path d="M 1.984375 -0.332031 L 1.984375 -2.402344 C 1.984375 -2.445312 1.972656 -2.488281 1.957031 -2.527344 C 1.941406 -2.566406 1.917969 -2.601562 1.886719 -2.632812 C 1.855469 -2.660156 1.820312 -2.683594 1.78125 -2.699219 C 1.742188 -2.714844 1.699219 -2.726562 1.652344 -2.726562 L 0.195312 -2.726562 L 0.289062 -2.589844 L 0.289062 -0.140625 L 0.195312 0 L 1.652344 0 C 1.742188 0 1.820312 -0.03125 1.886719 -0.0976562 C 1.949219 -0.160156 1.984375 -0.238281 1.984375 -0.332031 Z M 1.417969 -2.257812 L 1.417969 -0.472656 L 0.855469 -0.472656 L 0.855469 -2.257812 Z M 1.417969 -2.257812 "/></g></g></g><g fill="#ff9100" fill-opacity="1"><g transform="translate(56.167734, 38.569577)"><g><path d="M 0.320312 -0.125 L 0.195312 0 L 0.992188 0 L 0.902344 -0.121094 L 0.972656 -0.378906 L 1.664062 -0.378906 L 1.734375 -0.121094 L 1.644531 0 L 2.445312 0 L 2.320312 -0.125 L 1.640625 -2.625 L 1.695312 -2.726562 L 0.941406 -2.726562 L 0.996094 -2.621094 Z M 1.101562 -0.847656 L 1.320312 -1.652344 L 1.539062 -0.847656 Z M 1.101562 -0.847656 "/></g></g></g><g fill="#ff9100" fill-opacity="1"><g transform="translate(58.746791, 38.569577)"><g><path d="M 1.984375 -0.332031 L 1.984375 -2.402344 C 1.984375 -2.445312 1.972656 -2.488281 1.957031 -2.527344 C 1.941406 -2.566406 1.917969 -2.601562 1.886719 -2.632812 C 1.855469 -2.660156 1.820312 -2.683594 1.78125 -2.699219 C 1.742188 -2.714844 1.699219 -2.726562 1.652344 -2.726562 L 0.195312 -2.726562 L 0.289062 -2.589844 L 0.289062 -0.140625 L 0.195312 0 L 1.652344 0 C 1.742188 0 1.820312 -0.03125 1.886719 -0.0976562 C 1.949219 -0.160156 1.984375 -0.238281 1.984375 -0.332031 Z M 1.417969 -2.257812 L 1.417969 -0.472656 L 0.855469 -0.472656 L 0.855469 -2.257812 Z M 1.417969 -2.257812 "/></g></g></g><g fill="#ff9100" fill-opacity="1"><g transform="translate(60.86613, 38.569577)"><g><path d="M 0.855469 -2.257812 L 1.324219 -2.257812 L 1.324219 -2.070312 L 1.890625 -2.070312 L 1.890625 -2.726562 L 0.195312 -2.726562 L 0.289062 -2.589844 L 0.289062 -0.140625 L 0.195312 0 L 1.890625 0 L 1.890625 -0.660156 L 1.324219 -0.660156 L 1.324219 -0.472656 L 0.855469 -0.472656 L 0.855469 -1.128906 L 1.511719 -1.128906 L 1.417969 -1.597656 L 0.855469 -1.597656 Z M 0.855469 -2.257812 "/></g></g></g></svg>