<svg xmlns="http://www.w3.org/2000/svg" xmlns:xlink="http://www.w3.org/1999/xlink" width="97" zoomAndPan="magnify" viewBox="0 0 72.75 44.999999" height="60" preserveAspectRatio="xMidYMid meet" version="1.0"><defs><g/><clipPath id="7f4cc3e5a3"><path d="M 0 29.386719 L 24.871094 29.386719 L 24.871094 32.378906 L 0 32.378906 Z M 0 29.386719 " clip-rule="nonzero"/></clipPath><clipPath id="b2d9101f79"><path d="M 1.496094 29.386719 L 23.371094 29.386719 C 24.199219 29.386719 24.867188 30.054688 24.867188 30.878906 L 24.867188 30.886719 C 24.867188 31.710938 24.199219 32.378906 23.371094 32.378906 L 1.496094 32.378906 C 0.667969 32.378906 0 31.710938 0 30.886719 L 0 30.878906 C 0 30.054688 0.667969 29.386719 1.496094 29.386719 Z M 1.496094 29.386719 " clip-rule="nonzero"/></clipPath><clipPath id="13c40fda85"><path d="M 49.0625 4.203125 L 66.25 4.203125 L 66.25 22.144531 L 49.0625 22.144531 Z M 49.0625 4.203125 " clip-rule="nonzero"/></clipPath></defs><g fill="#ffffff" fill-opacity="1"><g transform="translate(0, 21.4616)"><g><path d="M 8.421875 -7.542969 C 8.210938 -9.585938 6.59375 -9.679688 4.550781 -9.71875 C 3.015625 -9.730469 0.414062 -9.71875 0.414062 -9.71875 L 0.414062 -9.515625 L 1.414062 -9.105469 C 1.414062 -9.105469 1.386719 -8.625 1.386719 -8.289062 L 1.386719 -0.613281 L 0.414062 -0.214844 L 0.414062 0.0117188 C 0.414062 0.0117188 1.347656 0 2.507812 0 C 3.65625 0 4.59375 0.0117188 4.59375 0.0117188 L 4.59375 -0.214844 L 3.671875 -0.613281 L 3.628906 -3.683594 C 4.660156 -5.484375 8.609375 -5.074219 8.421875 -7.542969 Z M 3.628906 -8.289062 C 3.628906 -9.089844 4.003906 -9.476562 4.472656 -9.503906 C 5.257812 -9.558594 6.3125 -8.625 6.21875 -7.316406 C 6.085938 -5.40625 4.765625 -5.59375 3.628906 -4.152344 Z M 3.628906 -8.289062 "/></g></g></g><g fill="#ffffff" fill-opacity="1"><g transform="translate(8.756036, 21.4616)"><g><path d="M 5.632812 -9.890625 L 4.632812 -10.132812 L 3.804688 -8.035156 L 3.910156 -7.984375 Z M 6.835938 -5.339844 C 6.660156 -7.554688 3.445312 -8.542969 1.523438 -6.902344 C 0.789062 -6.289062 0.28125 -5.273438 0.28125 -3.789062 C 0.292969 0.441406 5.324219 1.441406 6.460938 -2.335938 L 6.300781 -2.402344 C 5.40625 -1.148438 3.21875 -0.90625 2.816406 -3.191406 C 3.671875 -3.402344 6.355469 -5.003906 6.699219 -5.097656 C 6.792969 -5.125 6.835938 -5.273438 6.835938 -5.339844 Z M 5.257812 -6.660156 C 5.097656 -6.140625 4.457031 -5.21875 2.777344 -3.523438 C 2.761719 -3.671875 2.75 -3.832031 2.75 -3.992188 C 2.75 -5.484375 3.148438 -6.472656 3.617188 -6.996094 C 4.273438 -7.703125 5.472656 -7.421875 5.257812 -6.660156 Z M 5.257812 -6.660156 "/></g></g></g><g fill="#ffffff" fill-opacity="1"><g transform="translate(15.910357, 21.4616)"><g><path d="M 3.136719 -7.222656 C 3.125 -7.476562 2.949219 -7.609375 2.695312 -7.609375 C 2.496094 -7.621094 0.253906 -7.609375 0.253906 -7.609375 L 0.253906 -7.410156 L 0.867188 -7.007812 L 0.867188 -0.613281 L 0.160156 -0.1875 L 0.171875 0.0117188 L 3.765625 0.0117188 L 3.765625 -0.1875 L 3.148438 -0.613281 C 3.148438 -0.613281 3.136719 -5.378906 3.136719 -6.792969 C 3.230469 -7.046875 3.378906 -7.195312 3.644531 -7.234375 C 3.976562 -7.25 5.019531 -5.445312 5.257812 -5.367188 C 5.257812 -5.40625 5.273438 -7.515625 5.285156 -7.554688 C 4.710938 -7.6875 3.832031 -7.609375 3.136719 -7.222656 Z M 3.136719 -7.222656 "/></g></g></g><g fill="#ffffff" fill-opacity="1"><g transform="translate(21.36953, 21.4616)"><g><path d="M 3.75 -7.421875 C 1.429688 -7.421875 0.519531 -6.167969 0.492188 -3.804688 C 0.46875 -1.082031 1.628906 -0.0273438 3.75 -0.0273438 C 6.167969 -0.0273438 6.996094 -1.386719 6.996094 -3.722656 C 6.996094 -6.101562 6.128906 -7.421875 3.75 -7.421875 Z M 3.75 -7.15625 C 4.617188 -7.15625 4.699219 -4.59375 4.699219 -3.722656 C 4.699219 -2.855469 4.617188 -0.292969 3.75 -0.292969 C 2.898438 -0.292969 2.816406 -2.722656 2.816406 -3.578125 C 2.804688 -4.472656 2.855469 -7.15625 3.75 -7.15625 Z M 3.75 -7.15625 "/></g></g></g><g fill="#ffffff" fill-opacity="1"><g transform="translate(28.630634, 21.4616)"><g><path d="M 3.65625 -0.1875 L 3.03125 -0.613281 C 3.03125 -0.613281 3.015625 -9.558594 3.03125 -9.945312 C 3.042969 -10.25 2.855469 -10.398438 2.578125 -10.410156 C 2.390625 -10.410156 2.148438 -10.410156 1.882812 -10.410156 C 1.214844 -10.410156 0.148438 -10.398438 0.148438 -10.398438 L 0.148438 -10.210938 L 0.761719 -9.796875 L 0.761719 -0.613281 L 0.0546875 -0.1875 L 0.0546875 0 C 0.0546875 0 0.722656 0 1.882812 0 C 3.03125 0 3.65625 0 3.65625 0 Z M 3.65625 -0.1875 "/></g></g></g><g fill="#ffffff" fill-opacity="1"><g transform="translate(32.354618, 21.4616)"><g><path d="M 6.554688 -0.199219 L 5.621094 -0.628906 C 5.621094 -0.628906 5.632812 -3.882812 5.632812 -4.484375 C 5.632812 -5.378906 5.605469 -6.019531 5.417969 -6.472656 C 4.820312 -8.035156 0.386719 -8.167969 0.160156 -5.246094 C 0.160156 -5.179688 0.199219 -5.03125 0.292969 -5.003906 C 0.652344 -4.898438 1.65625 -4.605469 2.390625 -4.511719 C 2.429688 -4.539062 2.507812 -4.605469 2.550781 -4.644531 C 1.015625 -7.476562 2.921875 -7.664062 3.203125 -7.179688 C 3.351562 -6.914062 3.378906 -6.488281 3.363281 -4.457031 C 2.804688 -3.5625 0.160156 -3.777344 0.160156 -1.613281 C 0.160156 0.320312 2.269531 0.667969 3.351562 -0.746094 L 3.351562 0 C 3.351562 0 3.9375 -0.0117188 4.457031 -0.0117188 C 5.621094 -0.0117188 6.554688 0 6.554688 0 Z M 2.230469 -2.054688 C 2.230469 -3.285156 2.9375 -3.65625 3.363281 -4.246094 C 3.363281 -3.710938 3.351562 -0.949219 3.351562 -0.949219 C 2.964844 -0.707031 2.230469 -0.828125 2.230469 -2.054688 Z M 2.230469 -2.054688 "/></g></g></g><g fill="#ff9100" fill-opacity="1"><g transform="translate(0, 27.178892)"><g><path d="M 3.332031 -0.0429688 C 3.246094 -0.152344 3.117188 -0.398438 3.113281 -0.574219 C 3.105469 -1.007812 3.105469 -2.007812 3.105469 -2.007812 L 2.957031 -2.007812 C 2.890625 -1.539062 2.863281 -0.433594 2.214844 -0.132812 C 2.007812 -0.0625 1.617188 -0.078125 1.539062 -0.316406 L 1.539062 -4.136719 L 1.964844 -4.351562 L 1.964844 -4.433594 L 0.0546875 -4.441406 L 0.0546875 -4.351562 L 0.496094 -4.136719 L 0.496094 -0.28125 L 0.0546875 -0.0976562 L 0.0546875 0.0078125 C 0.0546875 0.0078125 3.082031 0 3.308594 0.0078125 C 3.335938 0.0078125 3.34375 -0.0234375 3.332031 -0.0429688 Z M 3.332031 -0.0429688 "/></g></g></g><g fill="#ff9100" fill-opacity="1"><g transform="translate(3.349448, 27.178892)"><g><path d="M 5.019531 -0.0859375 L 4.601562 -0.285156 L 3.054688 -4.15625 L 3.441406 -4.351562 L 3.445312 -4.433594 L 1.933594 -4.441406 C 0.988281 -1.054688 0.898438 -0.414062 0.117188 -0.0898438 C 0.117188 -0.046875 0.117188 -0.03125 0.117188 -0.0078125 C 0.132812 -0.0078125 2.152344 -0.0078125 2.214844 -0.0078125 C 2.207031 -0.0234375 2.222656 -0.046875 2.214844 -0.0898438 C 1.714844 -0.121094 1.519531 -0.71875 1.5 -1.46875 L 2.933594 -1.46875 C 3.171875 -0.828125 3.367188 -0.300781 3.367188 -0.300781 L 3.070312 -0.0859375 L 3.070312 0.0078125 L 5.019531 0 Z M 1.5 -1.582031 C 1.5 -2.300781 1.664062 -3.179688 1.886719 -3.972656 C 1.933594 -4.136719 1.953125 -4.15625 2.011719 -3.949219 C 2.027344 -3.910156 2.507812 -2.609375 2.890625 -1.582031 Z M 1.5 -1.582031 "/></g></g></g><g fill="#ff9100" fill-opacity="1"><g transform="translate(8.413276, 27.178892)"><g><path d="M 4.0625 -4.449219 C 4.050781 -4.441406 4.140625 -4.441406 3.613281 -4.441406 C 3.128906 -4.441406 2.59375 -4.449219 2.59375 -4.449219 C 2.59375 -4.449219 2.585938 -4.386719 2.59375 -4.355469 C 3.390625 -4.015625 3.460938 -3.964844 3.550781 -1.964844 C 3.5625 -1.71875 3.542969 -1.738281 3.476562 -1.824219 C 3.347656 -1.984375 1.425781 -4.429688 1.425781 -4.429688 C 0.996094 -4.429688 0.1875 -4.429688 0.1875 -4.429688 L 0.1875 -4.34375 C 0.1875 -4.34375 0.5 -4.199219 0.585938 -4.160156 C 0.585938 -4.160156 0.585938 -2.769531 0.578125 -2.667969 C 0.507812 -1.050781 0.535156 -0.292969 0.183594 -0.0976562 C 0.175781 -0.046875 0.175781 -0.0351562 0.175781 0 C 0.1875 0 1.640625 0 1.640625 0 C 1.640625 0 1.648438 -0.0351562 1.648438 -0.0898438 C 1.207031 -0.28125 0.738281 -0.183594 0.683594 -2.847656 C 0.675781 -3.269531 0.671875 -3.277344 0.695312 -3.335938 C 0.714844 -3.386719 0.746094 -3.417969 0.785156 -3.375 L 3.453125 -0.0078125 L 3.648438 -0.0078125 C 3.648438 -0.0078125 3.65625 -1.78125 3.660156 -1.953125 C 3.734375 -3.40625 3.722656 -4.199219 4.0625 -4.355469 C 4.070312 -4.386719 4.070312 -4.410156 4.0625 -4.449219 Z M 4.0625 -4.449219 "/></g></g></g><g fill="#ff9100" fill-opacity="1"><g transform="translate(12.531448, 27.178892)"><g><path d="M 2.152344 -0.105469 C 1.542969 -0.0664062 1.246094 -1.183594 1.257812 -2.277344 C 1.269531 -3.320312 1.566406 -4.363281 2.152344 -4.324219 C 2.746094 -4.296875 2.941406 -3.550781 2.527344 -2.777344 C 2.542969 -2.738281 2.542969 -2.726562 2.570312 -2.683594 C 3.09375 -2.75 3.910156 -3.007812 3.910156 -3.007812 C 3.90625 -3.617188 3.59375 -4.105469 2.957031 -4.320312 C 1.484375 -4.796875 0.0976562 -3.835938 0.03125 -2.320312 C -0.0195312 -1.175781 0.695312 0 2.164062 0.0078125 C 3.332031 0.0117188 3.898438 -0.578125 3.910156 -1.402344 C 3.910156 -1.402344 3.050781 -1.671875 2.53125 -1.734375 C 2.519531 -1.707031 2.507812 -1.695312 2.5 -1.679688 C 2.945312 -0.890625 2.757812 -0.132812 2.152344 -0.105469 Z M 2.152344 -0.105469 "/></g></g></g><g fill="#ff9100" fill-opacity="1"><g transform="translate(16.521501, 27.178892)"><g><path d="M 4.394531 -0.0859375 L 3.964844 -0.28125 L 3.964844 -4.15625 L 4.394531 -4.34375 L 4.394531 -4.429688 C 4.394531 -4.429688 3.964844 -4.433594 3.433594 -4.433594 C 2.910156 -4.433594 2.484375 -4.429688 2.484375 -4.429688 L 2.484375 -4.34375 L 2.929688 -4.15625 L 2.929688 -2.164062 L 1.550781 -2.164062 L 1.550781 -4.15625 L 1.976562 -4.34375 L 1.976562 -4.429688 C 1.976562 -4.429688 1.550781 -4.433594 1.019531 -4.433594 C 0.488281 -4.433594 0.0625 -4.429688 0.0625 -4.429688 L 0.0625 -4.34375 L 0.507812 -4.15625 L 0.507812 -0.28125 L 0.0625 -0.0859375 L 0.0625 0.0078125 L 1.976562 0.0078125 L 1.976562 -0.0859375 L 1.550781 -0.28125 L 1.550781 -2.054688 L 2.929688 -2.054688 L 2.929688 -0.28125 L 2.484375 -0.0859375 L 2.484375 0.0078125 C 2.484375 0.0078125 2.910156 0 3.433594 0 C 3.964844 0 4.394531 0.0078125 4.394531 0.0078125 Z M 4.394531 -0.0859375 "/></g></g></g><g fill="#ff9100" fill-opacity="1"><g transform="translate(20.981334, 27.178892)"><g><path d="M 3.148438 -0.574219 C 3.140625 -1.007812 3.136719 -1.453125 3.140625 -1.488281 C 3.09375 -1.488281 3.050781 -1.488281 2.996094 -1.488281 C 2.929688 -1.011719 2.703125 -0.300781 2.25 -0.132812 C 2.039062 -0.0625 1.640625 -0.078125 1.566406 -0.328125 C 1.550781 -0.402344 1.539062 -0.5 1.539062 -0.652344 L 1.539062 -2.007812 C 2.257812 -2.847656 2.453125 -1.691406 2.527344 -1.238281 L 2.597656 -1.238281 C 2.597656 -1.238281 2.539062 -2.105469 2.585938 -2.53125 C 2.636719 -2.957031 1.957031 -2.957031 1.539062 -2.171875 L 1.539062 -3.78125 C 1.539062 -3.933594 1.550781 -4.03125 1.566406 -4.105469 C 1.640625 -4.355469 2.039062 -4.375 2.25 -4.296875 C 2.703125 -4.136719 2.929688 -3.417969 2.996094 -2.945312 C 3.054688 -2.945312 3.097656 -2.945312 3.140625 -2.945312 C 3.136719 -2.984375 3.140625 -3.429688 3.148438 -3.863281 C 3.152344 -4.039062 3.28125 -4.277344 3.367188 -4.394531 C 3.378906 -4.410156 3.375 -4.433594 3.34375 -4.433594 C 2.902344 -4.433594 0.0664062 -4.429688 0.0664062 -4.429688 L 0.0664062 -4.34375 L 0.5 -4.15625 L 0.507812 -1.859375 L 0.5 -0.28125 L 0.0664062 -0.0859375 L 0.0664062 0.0078125 C 0.0664062 0.0078125 2.902344 0 3.34375 0.0078125 C 3.375 0.0078125 3.378906 -0.0234375 3.367188 -0.0429688 C 3.28125 -0.152344 3.152344 -0.398438 3.148438 -0.574219 Z M 3.148438 -0.574219 "/></g></g></g><g fill="#ff9100" fill-opacity="1"><g transform="translate(24.410098, 27.178892)"><g/></g></g><g fill="#ff9100" fill-opacity="1"><g transform="translate(25.563185, 27.178892)"><g><path d="M 4.386719 -4.355469 C 4.160156 -4.503906 3.921875 -4.589844 3.898438 -4.601562 L 3.613281 -3.933594 C 3.613281 -3.933594 3.648438 -3.890625 3.671875 -3.867188 C 3.886719 -3.949219 4.136719 -4.007812 4.332031 -4.015625 C 4.839844 -4.03125 4.875 -3.515625 3.628906 -3.179688 C 3.320312 -3.09375 2.988281 -2.957031 2.683594 -2.78125 C 1.542969 -2.128906 1.246094 -1.136719 1.5 -0.695312 C 0.921875 -1.050781 0.574219 -1.648438 0.914062 -2.222656 C 1.105469 -2.539062 1.46875 -2.734375 1.773438 -2.617188 C 1.789062 -2.691406 1.792969 -2.765625 1.800781 -2.835938 C 0.84375 -2.765625 1.457031 -4.59375 2.152344 -4.386719 C 2.410156 -4.308594 2.574219 -3.890625 2.34375 -3.277344 C 2.367188 -3.25 2.410156 -3.214844 2.410156 -3.214844 L 3.070312 -3.515625 C 3.0625 -3.53125 2.972656 -3.777344 2.824219 -3.996094 C 2.652344 -4.246094 2.386719 -4.429688 2.085938 -4.507812 C 0.8125 -4.84375 -0.207031 -3.167969 1.214844 -2.765625 C 0.0898438 -2.453125 -0.195312 -0.550781 0.847656 0.144531 C 1.636719 0.683594 2.953125 0.675781 3.722656 -0.0195312 C 4.410156 -0.648438 4.53125 -1.871094 3.667969 -2.453125 C 3.917969 -2.539062 4.136719 -2.628906 4.289062 -2.738281 C 4.921875 -3.097656 4.996094 -3.953125 4.386719 -4.355469 Z M 1.707031 -0.585938 C 1.628906 -0.648438 1.582031 -0.714844 1.550781 -0.792969 C 1.398438 -1.246094 2.171875 -1.898438 2.875 -2.171875 C 3.097656 -2.261719 3.332031 -2.335938 3.539062 -2.410156 C 4.921875 -1.574219 3.464844 0.226562 1.707031 -0.585938 Z M 1.707031 -0.585938 "/></g></g></g><g fill="#ff9100" fill-opacity="1"><g transform="translate(30.389076, 27.178892)"><g/></g></g><g fill="#ff9100" fill-opacity="1"><g transform="translate(31.542162, 27.178892)"><g><path d="M 3.851562 -3.445312 C 3.753906 -4.378906 3.015625 -4.421875 2.082031 -4.441406 C 1.378906 -4.449219 0.1875 -4.441406 0.1875 -4.441406 L 0.1875 -4.351562 L 0.648438 -4.160156 C 0.648438 -4.160156 0.632812 -3.941406 0.632812 -3.789062 L 0.632812 -0.28125 L 0.1875 -0.0976562 L 0.1875 0.0078125 C 0.1875 0.0078125 0.617188 0 1.148438 0 C 1.671875 0 2.097656 0.0078125 2.097656 0.0078125 L 2.097656 -0.0976562 L 1.679688 -0.28125 L 1.660156 -1.683594 C 2.128906 -2.507812 3.933594 -2.320312 3.851562 -3.445312 Z M 1.660156 -3.789062 C 1.660156 -4.15625 1.832031 -4.332031 2.042969 -4.34375 C 2.402344 -4.367188 2.886719 -3.941406 2.84375 -3.34375 C 2.78125 -2.472656 2.179688 -2.554688 1.660156 -1.898438 Z M 1.660156 -3.789062 "/></g></g></g><g fill="#ff9100" fill-opacity="1"><g transform="translate(35.465104, 27.178892)"><g><path d="M 2.128906 -0.0859375 L 1.703125 -0.28125 L 1.703125 -4.160156 L 2.128906 -4.351562 L 2.128906 -4.433594 C 2.128906 -4.433594 1.703125 -4.441406 1.171875 -4.441406 C 0.640625 -4.441406 0.214844 -4.433594 0.214844 -4.433594 L 0.214844 -4.351562 L 0.660156 -4.160156 L 0.660156 -0.28125 L 0.214844 -0.0859375 L 0.214844 0.0078125 C 0.214844 0.0078125 0.640625 0 1.171875 0 C 1.703125 0 2.128906 0.0078125 2.128906 0.0078125 Z M 2.128906 -0.0859375 "/></g></g></g><g fill="#ff9100" fill-opacity="1"><g transform="translate(37.67977, 27.178892)"><g><path d="M 3.3125 -4.449219 C 2.269531 -4.441406 1.304688 -4.441406 0.273438 -4.449219 C 0.242188 -4.449219 0.238281 -4.421875 0.25 -4.398438 C 0.335938 -4.289062 0.464844 -4.046875 0.46875 -3.867188 C 0.476562 -3.433594 0.480469 -2.996094 0.476562 -2.957031 C 0.519531 -2.957031 0.578125 -2.953125 0.621094 -2.957031 C 0.6875 -3.429688 0.914062 -4.148438 1.367188 -4.308594 C 1.539062 -4.367188 1.832031 -4.367188 1.976562 -4.234375 C 2.105469 -4.113281 2.039062 -4.03125 1.984375 -3.917969 L 0.273438 -0.121094 L 0.273438 0.0078125 C 0.550781 -0.0078125 3.015625 0 3.246094 0.0078125 C 3.277344 0.0078125 3.277344 -0.0195312 3.265625 -0.0429688 C 3.183594 -0.152344 3.050781 -0.398438 3.050781 -0.574219 C 3.039062 -1.007812 3.039062 -1.445312 3.039062 -1.484375 C 2.996094 -1.488281 2.941406 -1.484375 2.898438 -1.484375 C 2.824219 -1.011719 2.605469 -0.300781 2.152344 -0.132812 C 2.011719 -0.0859375 1.804688 -0.0742188 1.648438 -0.140625 C 1.421875 -0.238281 1.507812 -0.300781 1.609375 -0.53125 L 3.3125 -4.320312 Z M 3.3125 -4.449219 "/></g></g></g><g fill="#ff9100" fill-opacity="1"><g transform="translate(41.053625, 27.178892)"><g><path d="M 3.3125 -4.449219 C 2.269531 -4.441406 1.304688 -4.441406 0.273438 -4.449219 C 0.242188 -4.449219 0.238281 -4.421875 0.25 -4.398438 C 0.335938 -4.289062 0.464844 -4.046875 0.46875 -3.867188 C 0.476562 -3.433594 0.480469 -2.996094 0.476562 -2.957031 C 0.519531 -2.957031 0.578125 -2.953125 0.621094 -2.957031 C 0.6875 -3.429688 0.914062 -4.148438 1.367188 -4.308594 C 1.539062 -4.367188 1.832031 -4.367188 1.976562 -4.234375 C 2.105469 -4.113281 2.039062 -4.03125 1.984375 -3.917969 L 0.273438 -0.121094 L 0.273438 0.0078125 C 0.550781 -0.0078125 3.015625 0 3.246094 0.0078125 C 3.277344 0.0078125 3.277344 -0.0195312 3.265625 -0.0429688 C 3.183594 -0.152344 3.050781 -0.398438 3.050781 -0.574219 C 3.039062 -1.007812 3.039062 -1.445312 3.039062 -1.484375 C 2.996094 -1.488281 2.941406 -1.484375 2.898438 -1.484375 C 2.824219 -1.011719 2.605469 -0.300781 2.152344 -0.132812 C 2.011719 -0.0859375 1.804688 -0.0742188 1.648438 -0.140625 C 1.421875 -0.238281 1.507812 -0.300781 1.609375 -0.53125 L 3.3125 -4.320312 Z M 3.3125 -4.449219 "/></g></g></g><g fill="#ff9100" fill-opacity="1"><g transform="translate(44.42748, 27.178892)"><g><path d="M 5.019531 -0.0859375 L 4.601562 -0.285156 L 3.054688 -4.15625 L 3.441406 -4.351562 L 3.445312 -4.433594 L 1.933594 -4.441406 C 0.988281 -1.054688 0.898438 -0.414062 0.117188 -0.0898438 C 0.117188 -0.046875 0.117188 -0.03125 0.117188 -0.0078125 C 0.132812 -0.0078125 2.152344 -0.0078125 2.214844 -0.0078125 C 2.207031 -0.0234375 2.222656 -0.046875 2.214844 -0.0898438 C 1.714844 -0.121094 1.519531 -0.71875 1.5 -1.46875 L 2.933594 -1.46875 C 3.171875 -0.828125 3.367188 -0.300781 3.367188 -0.300781 L 3.070312 -0.0859375 L 3.070312 0.0078125 L 5.019531 0 Z M 1.5 -1.582031 C 1.5 -2.300781 1.664062 -3.179688 1.886719 -3.972656 C 1.933594 -4.136719 1.953125 -4.15625 2.011719 -3.949219 C 2.027344 -3.910156 2.507812 -2.609375 2.890625 -1.582031 Z M 1.5 -1.582031 "/></g></g></g><g fill="#ff9100" fill-opacity="1"><g transform="translate(49.491309, 27.178892)"><g><path d="M 3.972656 -0.359375 C 3.863281 -0.257812 3.703125 -0.273438 3.636719 -0.378906 C 3.410156 -0.71875 3.367188 -2.300781 1.835938 -2.007812 C 2.527344 -2.472656 3.78125 -2.496094 3.703125 -3.441406 C 3.613281 -4.375 2.875 -4.417969 1.941406 -4.433594 C 1.238281 -4.441406 0.0429688 -4.433594 0.0429688 -4.433594 L 0.0429688 -4.351562 L 0.507812 -4.15625 C 0.507812 -4.15625 0.488281 -3.933594 0.488281 -3.78125 L 0.496094 -0.28125 L 0.046875 -0.0976562 L 0.046875 0.0078125 C 0.046875 0.0078125 0.476562 0 1.007812 0 C 1.53125 0 1.957031 0.0078125 1.957031 0.0078125 L 1.957031 -0.0976562 L 1.53125 -0.28125 L 1.519531 -1.679688 C 1.679688 -1.964844 2.164062 -1.910156 2.292969 -0.664062 C 2.347656 -0.183594 2.671875 -0.0234375 3.167969 -0.0078125 C 3.507812 0.0117188 3.789062 -0.046875 4.046875 -0.28125 C 4.082031 -0.328125 4.03125 -0.402344 3.972656 -0.359375 Z M 1.902344 -4.335938 C 2.261719 -4.363281 2.746094 -3.933594 2.703125 -3.335938 C 2.640625 -2.507812 2.125 -2.582031 1.519531 -1.910156 L 1.519531 -3.78125 C 1.519531 -4.148438 1.691406 -4.324219 1.902344 -4.335938 Z M 1.902344 -4.335938 "/></g></g></g><g fill="#ff9100" fill-opacity="1"><g transform="translate(53.591182, 27.178892)"><g><path d="M 2.128906 -0.0859375 L 1.703125 -0.28125 L 1.703125 -4.160156 L 2.128906 -4.351562 L 2.128906 -4.433594 C 2.128906 -4.433594 1.703125 -4.441406 1.171875 -4.441406 C 0.640625 -4.441406 0.214844 -4.433594 0.214844 -4.433594 L 0.214844 -4.351562 L 0.660156 -4.160156 L 0.660156 -0.28125 L 0.214844 -0.0859375 L 0.214844 0.0078125 C 0.214844 0.0078125 0.640625 0 1.171875 0 C 1.703125 0 2.128906 0.0078125 2.128906 0.0078125 Z M 2.128906 -0.0859375 "/></g></g></g><g fill="#ff9100" fill-opacity="1"><g transform="translate(55.805848, 27.178892)"><g><path d="M 5.019531 -0.0859375 L 4.601562 -0.285156 L 3.054688 -4.15625 L 3.441406 -4.351562 L 3.445312 -4.433594 L 1.933594 -4.441406 C 0.988281 -1.054688 0.898438 -0.414062 0.117188 -0.0898438 C 0.117188 -0.046875 0.117188 -0.03125 0.117188 -0.0078125 C 0.132812 -0.0078125 2.152344 -0.0078125 2.214844 -0.0078125 C 2.207031 -0.0234375 2.222656 -0.046875 2.214844 -0.0898438 C 1.714844 -0.121094 1.519531 -0.71875 1.5 -1.46875 L 2.933594 -1.46875 C 3.171875 -0.828125 3.367188 -0.300781 3.367188 -0.300781 L 3.070312 -0.0859375 L 3.070312 0.0078125 L 5.019531 0 Z M 1.5 -1.582031 C 1.5 -2.300781 1.664062 -3.179688 1.886719 -3.972656 C 1.933594 -4.136719 1.953125 -4.15625 2.011719 -3.949219 C 2.027344 -3.910156 2.507812 -2.609375 2.890625 -1.582031 Z M 1.5 -1.582031 "/></g></g></g><g clip-path="url(#7f4cc3e5a3)"><g clip-path="url(#b2d9101f79)"><path fill="#ffffff" d="M 0 29.386719 L 24.871094 29.386719 L 24.871094 32.378906 L 0 32.378906 Z M 0 29.386719 " fill-opacity="1" fill-rule="nonzero"/></g></g><g clip-path="url(#13c40fda85)"><path fill="#ff9100" d="M 57.09375 4.484375 C 54.542969 4.527344 51.996094 5.347656 49.84375 6.96875 C 49.402344 7.296875 49.132812 7.792969 49.105469 8.347656 C 49.0625 8.90625 49.261719 9.445312 49.660156 9.832031 C 50.316406 10.484375 51.425781 10.558594 52.136719 10.015625 C 52.621094 9.644531 53.164062 9.316406 53.707031 9.046875 C 53.863281 8.960938 54.046875 9.074219 54.089844 9.246094 C 54.089844 9.261719 54.105469 9.289062 54.105469 9.304688 C 54.191406 9.515625 54.445312 9.617188 54.660156 9.53125 C 55.84375 9.03125 57.125 8.777344 58.378906 8.777344 C 59.957031 8.777344 61.398438 9.191406 62.550781 9.960938 C 62.621094 10 62.707031 10.03125 62.792969 10.03125 C 62.9375 10.03125 63.0625 9.957031 63.148438 9.84375 C 63.234375 9.703125 63.449219 9.730469 63.503906 9.886719 C 63.605469 10.214844 63.578125 10.585938 63.40625 10.886719 L 57.308594 21.15625 L 52.238281 12.59375 C 52.109375 12.378906 51.839844 12.324219 51.640625 12.453125 C 51.441406 12.578125 51.398438 12.851562 51.527344 13.050781 L 56.953125 22.210938 C 57.023438 22.335938 57.167969 22.421875 57.324219 22.421875 C 57.480469 22.421875 57.609375 22.335938 57.695312 22.210938 L 64.160156 11.3125 C 64.714844 10.371094 64.429688 9.117188 63.535156 8.535156 C 60.144531 6.339844 55.144531 6.667969 51.625 9.332031 C 51.242188 9.617188 50.613281 9.574219 50.257812 9.21875 C 50.042969 9.003906 49.929688 8.707031 49.945312 8.390625 C 49.960938 8.09375 50.117188 7.820312 50.359375 7.636719 C 54.929688 4.203125 61.441406 4.660156 65.5 8.707031 C 65.640625 8.847656 65.871094 8.890625 66.042969 8.761719 C 66.269531 8.605469 66.296875 8.292969 66.113281 8.105469 C 63.660156 5.65625 60.375 4.429688 57.09375 4.484375 Z M 59.632812 10.03125 C 59.386719 10.03125 59.148438 10.078125 58.921875 10.171875 C 58.695312 10.265625 58.496094 10.398438 58.320312 10.574219 C 58.148438 10.746094 58.015625 10.945312 57.921875 11.171875 C 57.828125 11.398438 57.78125 11.636719 57.78125 11.882812 C 57.78125 12.128906 57.828125 12.363281 57.921875 12.589844 C 58.015625 12.816406 58.148438 13.019531 58.320312 13.191406 C 58.496094 13.363281 58.695312 13.5 58.921875 13.59375 C 59.148438 13.6875 59.386719 13.734375 59.632812 13.734375 C 59.875 13.734375 60.113281 13.6875 60.339844 13.59375 C 60.566406 13.5 60.765625 13.363281 60.941406 13.191406 C 61.113281 13.019531 61.25 12.816406 61.34375 12.589844 C 61.4375 12.363281 61.484375 12.128906 61.484375 11.882812 C 61.484375 11.636719 61.4375 11.398438 61.34375 11.171875 C 61.25 10.945312 61.113281 10.746094 60.941406 10.574219 C 60.765625 10.398438 60.566406 10.265625 60.339844 10.171875 C 60.113281 10.078125 59.875 10.03125 59.632812 10.03125 Z M 57.152344 15.242188 C 57 15.242188 56.855469 15.273438 56.714844 15.332031 C 56.578125 15.386719 56.453125 15.46875 56.347656 15.578125 C 56.238281 15.683594 56.15625 15.808594 56.101562 15.945312 C 56.042969 16.085938 56.011719 16.230469 56.011719 16.382812 C 56.011719 16.535156 56.042969 16.679688 56.101562 16.820312 C 56.15625 16.957031 56.238281 17.082031 56.347656 17.1875 C 56.453125 17.296875 56.578125 17.378906 56.714844 17.4375 C 56.855469 17.492188 57 17.523438 57.152344 17.523438 C 57.304688 17.523438 57.449219 17.492188 57.589844 17.4375 C 57.726562 17.378906 57.851562 17.296875 57.957031 17.1875 C 58.066406 17.082031 58.148438 16.957031 58.207031 16.820312 C 58.261719 16.679688 58.292969 16.535156 58.292969 16.382812 C 58.292969 16.230469 58.261719 16.085938 58.207031 15.945312 C 58.148438 15.808594 58.066406 15.683594 57.957031 15.578125 C 57.851562 15.46875 57.726562 15.386719 57.589844 15.332031 C 57.449219 15.273438 57.304688 15.242188 57.152344 15.242188 Z M 57.152344 15.242188 " fill-opacity="1" fill-rule="nonzero"/></g><g fill="#ff9100" fill-opacity="1"><g transform="translate(26.178148, 31.794532)"><g><path d="M 1.890625 -0.332031 L 1.890625 -2.402344 C 1.890625 -2.445312 1.878906 -2.488281 1.863281 -2.527344 C 1.847656 -2.566406 1.824219 -2.601562 1.792969 -2.632812 C 1.761719 -2.660156 1.726562 -2.683594 1.6875 -2.699219 C 1.648438 -2.714844 1.605469 -2.726562 1.558594 -2.726562 L 0.527344 -2.726562 C 0.480469 -2.726562 0.433594 -2.714844 0.394531 -2.699219 C 0.355469 -2.683594 0.320312 -2.660156 0.289062 -2.632812 C 0.257812 -2.601562 0.234375 -2.566406 0.21875 -2.527344 C 0.203125 -2.488281 0.195312 -2.445312 0.195312 -2.402344 L 0.195312 -0.332031 C 0.195312 -0.238281 0.226562 -0.160156 0.292969 -0.0976562 C 0.355469 -0.03125 0.433594 0 0.527344 0 L 1.558594 0 C 1.648438 0 1.726562 -0.03125 1.792969 -0.0976562 C 1.855469 -0.160156 1.890625 -0.238281 1.890625 -0.332031 Z M 1.324219 -2.257812 L 1.324219 -0.472656 L 0.761719 -0.472656 L 0.761719 -2.257812 Z M 1.324219 -2.257812 "/></g></g></g><g fill="#ff9100" fill-opacity="1"><g transform="translate(28.200092, 31.794532)"><g/></g></g><g fill="#ff9100" fill-opacity="1"><g transform="translate(29.458438, 31.794532)"><g><path d="M 1.230469 -0.660156 L 1.605469 -0.660156 L 1.984375 -1.316406 L 1.984375 -0.140625 L 1.886719 0 L 2.640625 0 L 2.546875 -0.140625 L 2.546875 -2.589844 L 2.640625 -2.726562 L 1.984375 -2.726562 L 1.417969 -1.410156 L 0.855469 -2.726562 L 0.195312 -2.726562 L 0.289062 -2.589844 L 0.289062 -0.140625 L 0.195312 0 L 0.945312 0 L 0.855469 -0.140625 L 0.855469 -1.316406 Z M 1.230469 -0.660156 "/></g></g></g><g fill="#ff9100" fill-opacity="1"><g transform="translate(32.236188, 31.794532)"><g><path d="M 0.855469 -2.257812 L 1.324219 -2.257812 L 1.324219 -2.070312 L 1.890625 -2.070312 L 1.890625 -2.726562 L 0.195312 -2.726562 L 0.289062 -2.589844 L 0.289062 -0.140625 L 0.195312 0 L 1.890625 0 L 1.890625 -0.660156 L 1.324219 -0.660156 L 1.324219 -0.472656 L 0.855469 -0.472656 L 0.855469 -1.128906 L 1.511719 -1.128906 L 1.417969 -1.597656 L 0.855469 -1.597656 Z M 0.855469 -2.257812 "/></g></g></g><g fill="#ff9100" fill-opacity="1"><g transform="translate(34.258132, 31.794532)"><g><path d="M 1.890625 -0.660156 L 1.324219 -0.660156 L 1.324219 -0.472656 L 0.855469 -0.472656 L 0.855469 -2.589844 L 0.945312 -2.726562 L 0.195312 -2.726562 L 0.289062 -2.589844 L 0.289062 -0.140625 L 0.195312 0 L 1.890625 0 Z M 1.890625 -0.660156 "/></g></g></g><g fill="#ff9100" fill-opacity="1"><g transform="translate(36.280076, 31.794532)"><g><path d="M 0.855469 -2.589844 L 0.945312 -2.726562 L 0.195312 -2.726562 L 0.289062 -2.589844 L 0.289062 -0.140625 L 0.195312 0 L 0.945312 0 L 0.855469 -0.140625 L 0.855469 -1.128906 L 1.464844 -1.128906 L 1.464844 -0.140625 L 1.371094 0 L 2.125 0 L 2.03125 -0.140625 L 2.03125 -2.589844 L 2.125 -2.726562 L 1.371094 -2.726562 L 1.464844 -2.589844 L 1.464844 -1.597656 L 0.855469 -1.597656 Z M 0.855469 -2.589844 "/></g></g></g><g fill="#ff9100" fill-opacity="1"><g transform="translate(38.539671, 31.794532)"><g><path d="M 1.890625 -0.332031 L 1.890625 -2.402344 C 1.890625 -2.445312 1.878906 -2.488281 1.863281 -2.527344 C 1.847656 -2.566406 1.824219 -2.601562 1.792969 -2.632812 C 1.761719 -2.660156 1.726562 -2.683594 1.6875 -2.699219 C 1.648438 -2.714844 1.605469 -2.726562 1.558594 -2.726562 L 0.527344 -2.726562 C 0.480469 -2.726562 0.433594 -2.714844 0.394531 -2.699219 C 0.355469 -2.683594 0.320312 -2.660156 0.289062 -2.632812 C 0.257812 -2.601562 0.234375 -2.566406 0.21875 -2.527344 C 0.203125 -2.488281 0.195312 -2.445312 0.195312 -2.402344 L 0.195312 -0.332031 C 0.195312 -0.238281 0.226562 -0.160156 0.292969 -0.0976562 C 0.355469 -0.03125 0.433594 0 0.527344 0 L 1.558594 0 C 1.648438 0 1.726562 -0.03125 1.792969 -0.0976562 C 1.855469 -0.160156 1.890625 -0.238281 1.890625 -0.332031 Z M 1.324219 -2.257812 L 1.324219 -0.472656 L 0.761719 -0.472656 L 0.761719 -2.257812 Z M 1.324219 -2.257812 "/></g></g></g><g fill="#ff9100" fill-opacity="1"><g transform="translate(40.561616, 31.794532)"><g><path d="M 0.855469 -0.140625 L 0.855469 -0.890625 L 1.183594 -0.890625 L 1.5 0 L 2.101562 0 L 1.777344 -0.917969 C 1.835938 -0.941406 1.886719 -0.980469 1.925781 -1.035156 C 1.964844 -1.089844 1.984375 -1.152344 1.984375 -1.222656 L 1.984375 -2.402344 C 1.984375 -2.445312 1.972656 -2.488281 1.957031 -2.527344 C 1.941406 -2.566406 1.917969 -2.601562 1.886719 -2.632812 C 1.855469 -2.660156 1.820312 -2.683594 1.78125 -2.699219 C 1.742188 -2.714844 1.699219 -2.726562 1.652344 -2.726562 L 0.195312 -2.726562 L 0.289062 -2.589844 L 0.289062 -0.140625 L 0.195312 0 L 0.945312 0 Z M 0.855469 -2.257812 L 1.417969 -2.257812 L 1.417969 -1.363281 L 0.855469 -1.363281 Z M 0.855469 -2.257812 "/></g></g></g><g fill="#ff9100" fill-opacity="1"><g transform="translate(42.797834, 31.794532)"><g/></g></g><g fill="#ff9100" fill-opacity="1"><g transform="translate(44.056181, 31.794532)"><g><path d="M 1.984375 -0.332031 L 1.984375 -2.402344 C 1.984375 -2.445312 1.972656 -2.488281 1.957031 -2.527344 C 1.941406 -2.566406 1.917969 -2.601562 1.886719 -2.632812 C 1.855469 -2.660156 1.820312 -2.683594 1.78125 -2.699219 C 1.742188 -2.714844 1.699219 -2.726562 1.652344 -2.726562 L 0.195312 -2.726562 L 0.289062 -2.589844 L 0.289062 -0.140625 L 0.195312 0 L 1.652344 0 C 1.742188 0 1.820312 -0.03125 1.886719 -0.0976562 C 1.949219 -0.160156 1.984375 -0.238281 1.984375 -0.332031 Z M 1.417969 -2.257812 L 1.417969 -0.472656 L 0.855469 -0.472656 L 0.855469 -2.257812 Z M 1.417969 -2.257812 "/></g></g></g><g fill="#ff9100" fill-opacity="1"><g transform="translate(46.175522, 31.794532)"><g><path d="M 0.320312 -0.125 L 0.195312 0 L 0.992188 0 L 0.902344 -0.121094 L 0.972656 -0.378906 L 1.664062 -0.378906 L 1.734375 -0.121094 L 1.644531 0 L 2.445312 0 L 2.320312 -0.125 L 1.640625 -2.625 L 1.695312 -2.726562 L 0.941406 -2.726562 L 0.996094 -2.621094 Z M 1.101562 -0.847656 L 1.320312 -1.652344 L 1.539062 -0.847656 Z M 1.101562 -0.847656 "/></g></g></g><g fill="#ff9100" fill-opacity="1"><g transform="translate(48.75458, 31.794532)"><g/></g></g><g fill="#ff9100" fill-opacity="1"><g transform="translate(50.012926, 31.794532)"><g><path d="M 1.324219 -0.9375 L 1.324219 -0.472656 L 0.761719 -0.472656 L 0.761719 -2.257812 L 1.324219 -2.257812 L 1.324219 -1.695312 L 1.890625 -1.789062 L 1.890625 -2.402344 C 1.890625 -2.445312 1.878906 -2.488281 1.863281 -2.527344 C 1.847656 -2.566406 1.824219 -2.601562 1.792969 -2.632812 C 1.761719 -2.660156 1.726562 -2.683594 1.6875 -2.699219 C 1.648438 -2.714844 1.605469 -2.726562 1.558594 -2.726562 L 0.527344 -2.726562 C 0.480469 -2.726562 0.433594 -2.714844 0.394531 -2.699219 C 0.355469 -2.683594 0.320312 -2.660156 0.289062 -2.632812 C 0.257812 -2.601562 0.234375 -2.566406 0.21875 -2.527344 C 0.203125 -2.488281 0.195312 -2.445312 0.195312 -2.402344 L 0.195312 -0.332031 C 0.195312 -0.238281 0.226562 -0.160156 0.292969 -0.0976562 C 0.355469 -0.03125 0.433594 0 0.527344 0 L 1.558594 0 C 1.648438 0 1.726562 -0.03125 1.792969 -0.0976562 C 1.855469 -0.160156 1.890625 -0.238281 1.890625 -0.332031 L 1.890625 -0.9375 Z M 1.324219 -0.9375 "/></g></g></g><g fill="#ff9100" fill-opacity="1"><g transform="translate(52.034868, 31.794532)"><g><path d="M 0.195312 0 L 0.945312 0 L 0.855469 -0.140625 L 0.855469 -2.589844 L 0.945312 -2.726562 L 0.195312 -2.726562 L 0.289062 -2.589844 L 0.289062 -0.140625 Z M 0.195312 0 "/></g></g></g><g fill="#ff9100" fill-opacity="1"><g transform="translate(53.117896, 31.794532)"><g><path d="M 1.984375 -0.332031 L 1.984375 -2.402344 C 1.984375 -2.445312 1.972656 -2.488281 1.957031 -2.527344 C 1.941406 -2.566406 1.917969 -2.601562 1.886719 -2.632812 C 1.855469 -2.660156 1.820312 -2.683594 1.78125 -2.699219 C 1.742188 -2.714844 1.699219 -2.726562 1.652344 -2.726562 L 0.195312 -2.726562 L 0.289062 -2.589844 L 0.289062 -0.140625 L 0.195312 0 L 1.652344 0 C 1.742188 0 1.820312 -0.03125 1.886719 -0.0976562 C 1.949219 -0.160156 1.984375 -0.238281 1.984375 -0.332031 Z M 1.417969 -2.257812 L 1.417969 -0.472656 L 0.855469 -0.472656 L 0.855469 -2.257812 Z M 1.417969 -2.257812 "/></g></g></g><g fill="#ff9100" fill-opacity="1"><g transform="translate(55.237236, 31.794532)"><g><path d="M 0.320312 -0.125 L 0.195312 0 L 0.992188 0 L 0.902344 -0.121094 L 0.972656 -0.378906 L 1.664062 -0.378906 L 1.734375 -0.121094 L 1.644531 0 L 2.445312 0 L 2.320312 -0.125 L 1.640625 -2.625 L 1.695312 -2.726562 L 0.941406 -2.726562 L 0.996094 -2.621094 Z M 1.101562 -0.847656 L 1.320312 -1.652344 L 1.539062 -0.847656 Z M 1.101562 -0.847656 "/></g></g></g><g fill="#ff9100" fill-opacity="1"><g transform="translate(57.816293, 31.794532)"><g><path d="M 1.984375 -0.332031 L 1.984375 -2.402344 C 1.984375 -2.445312 1.972656 -2.488281 1.957031 -2.527344 C 1.941406 -2.566406 1.917969 -2.601562 1.886719 -2.632812 C 1.855469 -2.660156 1.820312 -2.683594 1.78125 -2.699219 C 1.742188 -2.714844 1.699219 -2.726562 1.652344 -2.726562 L 0.195312 -2.726562 L 0.289062 -2.589844 L 0.289062 -0.140625 L 0.195312 0 L 1.652344 0 C 1.742188 0 1.820312 -0.03125 1.886719 -0.0976562 C 1.949219 -0.160156 1.984375 -0.238281 1.984375 -0.332031 Z M 1.417969 -2.257812 L 1.417969 -0.472656 L 0.855469 -0.472656 L 0.855469 -2.257812 Z M 1.417969 -2.257812 "/></g></g></g><g fill="#ff9100" fill-opacity="1"><g transform="translate(59.935632, 31.794532)"><g><path d="M 0.855469 -2.257812 L 1.324219 -2.257812 L 1.324219 -2.070312 L 1.890625 -2.070312 L 1.890625 -2.726562 L 0.195312 -2.726562 L 0.289062 -2.589844 L 0.289062 -0.140625 L 0.195312 0 L 1.890625 0 L 1.890625 -0.660156 L 1.324219 -0.660156 L 1.324219 -0.472656 L 0.855469 -0.472656 L 0.855469 -1.128906 L 1.511719 -1.128906 L 1.417969 -1.597656 L 0.855469 -1.597656 Z M 0.855469 -2.257812 "/></g></g></g></svg>